<svg xmlns="http://www.w3.org/2000/svg"  viewBox="0 0 100 100" width="100px" height="100px"><path fill="#c7ede6" d="M87.215,56.71C88.35,54.555,89,52.105,89,49.5c0-6.621-4.159-12.257-10.001-14.478 C78.999,35.015,79,35.008,79,35c0-11.598-9.402-21-21-21c-9.784,0-17.981,6.701-20.313,15.757C36.211,29.272,34.638,29,33,29 c-7.692,0-14.023,5.793-14.89,13.252C12.906,43.353,9,47.969,9,53.5C9,59.851,14.149,65,20.5,65c0.177,0,0.352-0.012,0.526-0.022 C21.022,65.153,21,65.324,21,65.5C21,76.822,30.178,86,41.5,86c6.437,0,12.175-2.972,15.934-7.614C59.612,80.611,62.64,82,66,82 c4.65,0,8.674-2.65,10.666-6.518C77.718,75.817,78.837,76,80,76c6.075,0,11-4.925,11-11C91,61.689,89.53,58.727,87.215,56.71z"/><path fill="#fdfcef" d="M77.5,60.5V61h3v-0.5c0,0,4.242,0,5.5,0c2.485,0,4.5-2.015,4.5-4.5 c0-2.333-1.782-4.229-4.055-4.455C86.467,51.364,86.5,51.187,86.5,51c0-2.485-2.015-4.5-4.5-4.5c-1.438,0-2.703,0.686-3.527,1.736 C78.333,45.6,76.171,43.5,73.5,43.5c-2.761,0-5,2.239-5,5c0,0.446,0.077,0.87,0.187,1.282C68.045,49.005,67.086,48.5,66,48.5 c-1.781,0-3.234,1.335-3.455,3.055C62.364,51.533,62.187,51.5,62,51.5c-2.485,0-4.5,2.015-4.5,4.5s2.015,4.5,4.5,4.5s9.5,0,9.5,0 H77.5z"/><path fill="#472b29" d="M73.5,43c-3.033,0-5.5,2.467-5.5,5.5c0,0.016,0,0.031,0,0.047C67.398,48.192,66.71,48,66,48 c-1.831,0-3.411,1.261-3.858,3.005C62.095,51.002,62.048,51,62,51c-2.757,0-5,2.243-5,5s2.243,5,5,5h15.5 c0.276,0,0.5-0.224,0.5-0.5S77.776,60,77.5,60H62c-2.206,0-4-1.794-4-4s1.794-4,4-4c0.117,0,0.23,0.017,0.343,0.032l0.141,0.019 c0.021,0.003,0.041,0.004,0.062,0.004c0.246,0,0.462-0.185,0.495-0.437C63.232,50.125,64.504,49,66,49 c0.885,0,1.723,0.401,2.301,1.1c0.098,0.118,0.241,0.182,0.386,0.182c0.078,0,0.156-0.018,0.228-0.056 c0.209-0.107,0.314-0.346,0.254-0.573C69.054,49.218,69,48.852,69,48.5c0-2.481,2.019-4.5,4.5-4.5 c2.381,0,4.347,1.872,4.474,4.263c0.011,0.208,0.15,0.387,0.349,0.45c0.05,0.016,0.101,0.024,0.152,0.024 c0.15,0,0.296-0.069,0.392-0.192C79.638,47.563,80.779,47,82,47c2.206,0,4,1.794,4,4c0,0.117-0.017,0.23-0.032,0.343l-0.019,0.141 c-0.016,0.134,0.022,0.268,0.106,0.373c0.084,0.105,0.207,0.172,0.34,0.185C88.451,52.247,90,53.949,90,56c0,2.206-1.794,4-4,4 h-5.5c-0.276,0-0.5,0.224-0.5,0.5s0.224,0.5,0.5,0.5H86c2.757,0,5-2.243,5-5c0-2.397-1.689-4.413-4.003-4.877 C86.999,51.082,87,51.041,87,51c0-2.757-2.243-5-5-5c-1.176,0-2.293,0.416-3.183,1.164C78.219,44.76,76.055,43,73.5,43L73.5,43z"/><path fill="#472b29" d="M72 50c-1.403 0-2.609.999-2.913 2.341C68.72 52.119 68.301 52 67.875 52c-1.202 0-2.198.897-2.353 2.068C65.319 54.022 65.126 54 64.938 54c-1.529 0-2.811 1.2-2.918 2.732C62.01 56.87 62.114 56.99 62.251 57c.006 0 .012 0 .018 0 .13 0 .24-.101.249-.232.089-1.271 1.151-2.268 2.419-2.268.229 0 .47.042.738.127.022.007.045.01.067.01.055 0 .11-.02.156-.054C65.962 54.537 66 54.455 66 54.375c0-1.034.841-1.875 1.875-1.875.447 0 .885.168 1.231.473.047.041.106.063.165.063.032 0 .063-.006.093-.019.088-.035.148-.117.155-.212C69.623 51.512 70.712 50.5 72 50.5c.208 0 .425.034.682.107.023.007.047.01.07.01.109 0 .207-.073.239-.182.038-.133-.039-.271-.172-.309C72.517 50.04 72.256 50 72 50L72 50zM85.883 51.5c-1.326 0-2.508.897-2.874 2.182-.038.133.039.271.172.309C83.205 53.997 83.228 54 83.25 54c.109 0 .209-.072.24-.182C83.795 52.748 84.779 52 85.883 52c.117 0 .23.014.342.029.012.002.023.003.035.003.121 0 .229-.092.246-.217.019-.137-.077-.263-.214-.281C86.158 51.516 86.022 51.5 85.883 51.5L85.883 51.5z"/><path fill="#fff" d="M15.5 51h-10C5.224 51 5 50.776 5 50.5S5.224 50 5.5 50h10c.276 0 .5.224.5.5S15.777 51 15.5 51zM18.5 51h-1c-.276 0-.5-.224-.5-.5s.224-.5.5-.5h1c.276 0 .5.224.5.5S18.777 51 18.5 51zM23.491 53H14.5c-.276 0-.5-.224-.5-.5s.224-.5.5-.5h8.991c.276 0 .5.224.5.5S23.767 53 23.491 53zM12.5 53h-1c-.276 0-.5-.224-.5-.5s.224-.5.5-.5h1c.276 0 .5.224.5.5S12.777 53 12.5 53zM9.5 53h-2C7.224 53 7 52.776 7 52.5S7.224 52 7.5 52h2c.276 0 .5.224.5.5S9.777 53 9.5 53zM15.5 55h-2c-.276 0-.5-.224-.5-.5s.224-.5.5-.5h2c.276 0 .5.224.5.5S15.776 55 15.5 55zM18.5 46c-.177 0-.823 0-1 0-.276 0-.5.224-.5.5 0 .276.224.5.5.5.177 0 .823 0 1 0 .276 0 .5-.224.5-.5C19 46.224 18.776 46 18.5 46zM18.5 48c-.177 0-4.823 0-5 0-.276 0-.5.224-.5.5 0 .276.224.5.5.5.177 0 4.823 0 5 0 .276 0 .5-.224.5-.5C19 48.224 18.776 48 18.5 48zM23.5 50c-.177 0-2.823 0-3 0-.276 0-.5.224-.5.5 0 .276.224.5.5.5.177 0 2.823 0 3 0 .276 0 .5-.224.5-.5C24 50.224 23.776 50 23.5 50z"/><g><path fill="#fff" d="M72.5 24h-10c-.276 0-.5-.224-.5-.5s.224-.5.5-.5h10c.276 0 .5.224.5.5S72.776 24 72.5 24zM76.5 24h-2c-.276 0-.5-.224-.5-.5s.224-.5.5-.5h2c.276 0 .5.224.5.5S76.776 24 76.5 24zM81.5 26h-10c-.276 0-.5-.224-.5-.5s.224-.5.5-.5h10c.276 0 .5.224.5.5S81.777 26 81.5 26zM69.5 26h-1c-.276 0-.5-.224-.5-.5s.224-.5.5-.5h1c.276 0 .5.224.5.5S69.776 26 69.5 26zM66.47 26H64.5c-.276 0-.5-.224-.5-.5s.224-.5.5-.5h1.97c.276 0 .5.224.5.5S66.746 26 66.47 26zM75.5 22h-5c-.276 0-.5-.224-.5-.5s.224-.5.5-.5h5c.276 0 .5.224.5.5S75.777 22 75.5 22zM72.5 28h-2c-.276 0-.5-.224-.5-.5s.224-.5.5-.5h2c.276 0 .5.224.5.5S72.776 28 72.5 28z"/></g><g><path fill="#48bed8" d="M52 26.75A23.25 23.25 0 1 0 52 73.25A23.25 23.25 0 1 0 52 26.75Z"/><path fill="#472b29" d="M52,73.95c-13.206,0-23.95-10.744-23.95-23.95S38.794,26.05,52,26.05S75.95,36.794,75.95,50 S65.206,73.95,52,73.95z M52,27.45c-12.434,0-22.55,10.115-22.55,22.55S39.566,72.55,52,72.55S74.55,62.435,74.55,50 S64.434,27.45,52,27.45z"/></g><g><path fill="#472b29" d="M70.623,44.987c-0.214,0-0.412-0.138-0.478-0.353c-0.084-0.275-0.175-0.548-0.271-0.816 c-0.375-1.048-0.849-2.069-1.408-3.036c-0.139-0.239-0.057-0.545,0.182-0.683c0.24-0.14,0.545-0.057,0.683,0.183 c0.589,1.019,1.088,2.095,1.483,3.197c0.102,0.283,0.197,0.571,0.287,0.86c0.081,0.265-0.067,0.544-0.331,0.625 C70.721,44.98,70.671,44.987,70.623,44.987z"/></g><g><path fill="#472b29" d="M52,70.035c-11.047,0-20.035-8.961-20.035-19.976c0-11.014,8.987-19.975,20.035-19.975 c5.734,0,11.204,2.457,15.007,6.74c0.287,0.323,0.564,0.657,0.831,1c0.169,0.218,0.13,0.532-0.087,0.701 c-0.218,0.171-0.532,0.13-0.702-0.088c-0.253-0.325-0.516-0.642-0.789-0.949c-3.614-4.07-8.811-6.404-14.259-6.404 c-10.496,0-19.035,8.512-19.035,18.975S41.504,69.035,52,69.035s19.035-8.513,19.035-18.976c0-0.955-0.072-1.912-0.213-2.846 c-0.041-0.273,0.147-0.528,0.42-0.569c0.275-0.038,0.528,0.147,0.569,0.419c0.149,0.983,0.224,1.991,0.224,2.996 C72.035,61.074,63.047,70.035,52,70.035z"/></g><g><path fill="#fdfcef" d="M36.5,73.5c0,0,1.567,0,3.5,0s3.5-1.567,3.5-3.5c0-1.781-1.335-3.234-3.055-3.455 C40.473,66.366,40.5,66.187,40.5,66c0-1.933-1.567-3.5-3.5-3.5c-1.032,0-1.95,0.455-2.59,1.165 c-0.384-1.808-1.987-3.165-3.91-3.165c-2.209,0-4,1.791-4,4c0,0.191,0.03,0.374,0.056,0.558C26.128,64.714,25.592,64.5,25,64.5 c-1.228,0-2.245,0.887-2.455,2.055C22.366,66.527,22.187,66.5,22,66.5c-1.933,0-3.5,1.567-3.5,3.5s1.567,3.5,3.5,3.5s7.5,0,7.5,0 V74h7V73.5z"/><path fill="#472b29" d="M38.25 69C38.112 69 38 68.888 38 68.75c0-1.223.995-2.218 2.218-2.218.034.009.737-.001 1.244.136.133.036.212.173.176.306-.036.134-.173.213-.306.176-.444-.12-1.1-.12-1.113-.118-.948 0-1.719.771-1.719 1.718C38.5 68.888 38.388 69 38.25 69zM31.5 73A.5.5 0 1 0 31.5 74 .5.5 0 1 0 31.5 73z"/><path fill="#472b29" d="M40,74h-3.5c-0.276,0-0.5-0.224-0.5-0.5s0.224-0.5,0.5-0.5H40c1.654,0,3-1.346,3-3 c0-1.496-1.125-2.768-2.618-2.959c-0.134-0.018-0.255-0.088-0.336-0.196s-0.115-0.244-0.094-0.377C39.975,66.314,40,66.16,40,66 c0-1.654-1.346-3-3-3c-0.85,0-1.638,0.355-2.219,1c-0.125,0.139-0.321,0.198-0.5,0.148c-0.182-0.049-0.321-0.195-0.36-0.379 C33.58,62.165,32.141,61,30.5,61c-1.93,0-3.5,1.57-3.5,3.5c0,0.143,0.021,0.28,0.041,0.418c0.029,0.203-0.063,0.438-0.242,0.54 c-0.179,0.102-0.396,0.118-0.556-0.01C25.878,65.155,25.449,65,25,65c-0.966,0-1.792,0.691-1.963,1.644 c-0.048,0.267-0.296,0.446-0.569,0.405C22.314,67.025,22.16,67,22,67c-1.654,0-3,1.346-3,3s1.346,3,3,3h7.5 c0.276,0,0.5,0.224,0.5,0.5S29.776,74,29.5,74H22c-2.206,0-4-1.794-4-4s1.794-4,4-4c0.059,0,0.116,0.002,0.174,0.006 C22.588,64.82,23.711,64,25,64c0.349,0,0.689,0.061,1.011,0.18C26.176,61.847,28.126,60,30.5,60c1.831,0,3.466,1.127,4.153,2.774 C35.333,62.276,36.155,62,37,62c2.206,0,4,1.794,4,4c0,0.048-0.001,0.095-0.004,0.142C42.739,66.59,44,68.169,44,70 C44,72.206,42.206,74,40,74z"/><path fill="#472b29" d="M34.5,73c-0.159,0-0.841,0-1,0c-0.276,0-0.5,0.224-0.5,0.5c0,0.276,0.224,0.5,0.5,0.5 c0.159,0,0.841,0,1,0c0.276,0,0.5-0.224,0.5-0.5C35,73.224,34.776,73,34.5,73z"/></g><g><path fill="#b5cfe4" d="M50.798,57.788l-4.001,3.695c0,0-0.312,0.24-0.655,0.09l0.766-6.864L50.798,57.788z"/><path fill="#472b29" d="M46.375,61.871c-0.107,0-0.22-0.021-0.333-0.07l-0.168-0.073l0.837-7.495l4.472,3.541l-4.216,3.893 C46.842,61.762,46.624,61.871,46.375,61.871z M47.106,55.184l-0.69,6.187c0.128-0.013,0.227-0.085,0.228-0.086l3.77-3.481 L47.106,55.184z"/><path fill="#fff" d="M63.72,39.438l-4.384,22.387c0,0-0.613,1.553-2.299,0.807L46.92,54.776l-3.679-1.801l-6.193-2.111 c0,0-0.951-0.341-1.043-1.086c-0.092-0.745,1.073-1.149,1.073-1.149l24.62-9.781C61.696,38.847,63.72,37.947,63.72,39.438z"/><path fill="#472b29" d="M57.899,63.085c-0.303,0-0.625-0.075-0.963-0.225l-10.169-7.887L43.131,53.2l-6.164-2.1 c-0.048-0.017-1.101-0.404-1.21-1.292c-0.116-0.936,1.183-1.396,1.238-1.416l24.609-9.776l0.002,0.006 c0.323-0.18,1.147-0.374,1.634-0.247c0.272,0.073,0.729,0.309,0.729,1.063l-0.005,0.048l-4.384,22.387 c-0.024,0.074-0.314,0.792-1.037,1.088C58.34,63.043,58.125,63.085,57.899,63.085z M61.919,39.027l0,0.002l-0.129,0.052 l-24.62,9.78c-0.02,0.007-0.981,0.359-0.917,0.887c0.072,0.581,0.871,0.878,0.879,0.881l6.188,2.11l3.708,1.813l10.161,7.883 c0.407,0.173,0.815,0.205,1.16,0.064c0.524-0.213,0.751-0.762,0.754-0.768l4.366-22.317c-0.006-0.361-0.157-0.459-0.208-0.491 C62.927,38.706,62.234,38.908,61.919,39.027z"/><g><path fill="#d2e5f1" d="M46.141,61.572c0,0-0.295-0.028-0.664-1.208c-0.368-1.18-2.238-7.39-2.238-7.39l14.87-9.564 c0,0,0.858-0.528,0.828,0c0,0,0.153,0.093-0.307,0.528s-11.682,10.65-11.682,10.65L46.141,61.572z"/><path fill="#472b29" d="M46.361,61.845l-0.244-0.023c-0.21-0.021-0.533-0.276-0.878-1.384 c-0.368-1.179-2.239-7.391-2.239-7.391l-0.055-0.181l0.159-0.102l14.87-9.564c0.205-0.126,0.705-0.394,1.01-0.212 c0.07,0.042,0.177,0.135,0.2,0.323l0.026,0.121c0.02,0.19-0.106,0.402-0.407,0.688c-0.442,0.419-10.585,9.652-11.616,10.591 L46.361,61.845z M43.532,53.083c0.31,1.028,1.853,6.147,2.184,7.206c0.09,0.288,0.174,0.499,0.246,0.652l0.749-6.475l0.069-0.063 c0.112-0.103,11.226-10.219,11.678-10.647c0.125-0.118,0.19-0.198,0.223-0.247l0.004-0.08c-0.106,0.021-0.295,0.101-0.446,0.193 L43.532,53.083z"/></g></g><g><path fill="#472b29" d="M57.898,63.335c-0.337,0-0.693-0.082-1.064-0.246l-0.091-0.052l-6.111-4.423l-3.496,3.235 c-0.088,0.07-0.569,0.421-1.143,0.202c-0.563-0.158-0.883-1.184-0.995-1.54c-0.319-1.022-1.769-5.832-2.148-7.091l-0.017-0.056 l-5.948-2.027c-0.058-0.021-1.25-0.46-1.377-1.499c-0.138-1.114,1.247-1.628,1.405-1.683l24.598-9.772l0.003,0.008 c0.445-0.237,1.316-0.385,1.79-0.258c0.582,0.156,0.915,0.631,0.915,1.304L59.827,61.92c-0.06,0.174-0.382,0.94-1.188,1.271 C58.404,63.287,58.157,63.335,57.898,63.335z M57.285,62.194c0.375,0.157,0.7,0.181,0.967,0.074c0.424-0.17,0.618-0.627,0.62-0.632 l4.357-22.295c-0.009-0.016-0.025-0.159-0.102-0.208c-0.184-0.121-0.667-0.031-1.03,0.094l-24.834,9.866 c-0.301,0.106-0.789,0.397-0.761,0.622c0.043,0.354,0.545,0.615,0.717,0.679l6.405,2.184l0.083,0.221 c0,0.001,0.038,0.121,0.102,0.333c0.379,1.258,1.827,6.061,2.146,7.083c0.195,0.625,0.347,0.843,0.398,0.903 c0.061,0.018,0.138-0.031,0.139-0.032l4.063-3.763L57.285,62.194z"/></g></svg>